<mxfile host="65bd71144e" modified="2020-11-30T04:31:57.059Z" agent="5.0 (Windows NT 10.0; Win64; x64) AppleWebKit/537.36 (KHTML, like Gecko) Code/1.51.1 Chrome/83.0.4103.122 Electron/9.3.3 Safari/537.36" version="13.6.5" etag="7MGWOFZMKL1mUtKXVZIi">
    <diagram id="rEw1jaqa222dENqTSoB8" name="Page-1">
        <mxGraphModel dx="1925" dy="962" grid="1" gridSize="10" guides="1" tooltips="1" connect="1" arrows="1" fold="1" page="1" pageScale="1" pageWidth="1654" pageHeight="1169" background="#FFFFFF" math="0" shadow="0">
            <root>
                <mxCell id="0"/>
                <mxCell id="1" parent="0"/>
                <mxCell id="3" value="" style="whiteSpace=wrap;html=1;aspect=fixed;fillColor=#b1ddf0;strokeColor=#10739e;" vertex="1" parent="1">
                    <mxGeometry x="280" y="440" width="80" height="80" as="geometry"/>
                </mxCell>
                <mxCell id="4" value="" style="whiteSpace=wrap;html=1;aspect=fixed;fillColor=#b1ddf0;strokeColor=#10739e;" vertex="1" parent="1">
                    <mxGeometry x="360" y="440" width="80" height="80" as="geometry"/>
                </mxCell>
                <mxCell id="5" value="" style="whiteSpace=wrap;html=1;aspect=fixed;fillColor=#b1ddf0;strokeColor=#10739e;" vertex="1" parent="1">
                    <mxGeometry x="440" y="440" width="80" height="80" as="geometry"/>
                </mxCell>
                <mxCell id="6" value="" style="whiteSpace=wrap;html=1;aspect=fixed;fillColor=#b1ddf0;strokeColor=#10739e;" vertex="1" parent="1">
                    <mxGeometry x="520" y="440" width="80" height="80" as="geometry"/>
                </mxCell>
                <mxCell id="7" value="" style="whiteSpace=wrap;html=1;aspect=fixed;fillColor=#b1ddf0;strokeColor=#10739e;" vertex="1" parent="1">
                    <mxGeometry x="280" y="520" width="80" height="80" as="geometry"/>
                </mxCell>
                <mxCell id="8" value="" style="whiteSpace=wrap;html=1;aspect=fixed;fillColor=#b1ddf0;strokeColor=#10739e;" vertex="1" parent="1">
                    <mxGeometry x="360" y="520" width="80" height="80" as="geometry"/>
                </mxCell>
                <mxCell id="9" value="" style="whiteSpace=wrap;html=1;aspect=fixed;fillColor=#b1ddf0;strokeColor=#10739e;" vertex="1" parent="1">
                    <mxGeometry x="440" y="520" width="80" height="80" as="geometry"/>
                </mxCell>
                <mxCell id="10" value="" style="whiteSpace=wrap;html=1;aspect=fixed;fillColor=#b1ddf0;strokeColor=#10739e;" vertex="1" parent="1">
                    <mxGeometry x="520" y="520" width="80" height="80" as="geometry"/>
                </mxCell>
                <mxCell id="11" value="" style="whiteSpace=wrap;html=1;aspect=fixed;fillColor=#b1ddf0;strokeColor=#10739e;" vertex="1" parent="1">
                    <mxGeometry x="280" y="600" width="80" height="80" as="geometry"/>
                </mxCell>
                <mxCell id="12" value="" style="whiteSpace=wrap;html=1;aspect=fixed;fillColor=#b1ddf0;strokeColor=#10739e;" vertex="1" parent="1">
                    <mxGeometry x="360" y="600" width="80" height="80" as="geometry"/>
                </mxCell>
                <mxCell id="13" value="" style="whiteSpace=wrap;html=1;aspect=fixed;fillColor=#b1ddf0;strokeColor=#10739e;" vertex="1" parent="1">
                    <mxGeometry x="440" y="600" width="80" height="80" as="geometry"/>
                </mxCell>
                <mxCell id="14" value="" style="whiteSpace=wrap;html=1;aspect=fixed;fillColor=#b1ddf0;strokeColor=#10739e;" vertex="1" parent="1">
                    <mxGeometry x="520" y="600" width="80" height="80" as="geometry"/>
                </mxCell>
                <mxCell id="15" value="" style="rounded=0;whiteSpace=wrap;html=1;gradientColor=#ffd966;fillColor=#fff2cc;strokeColor=#d6b656;" vertex="1" parent="1">
                    <mxGeometry x="960" y="200" width="320" height="80" as="geometry"/>
                </mxCell>
                <mxCell id="16" value="" style="rounded=0;whiteSpace=wrap;html=1;gradientColor=#ffd966;fillColor=#fff2cc;strokeColor=#d6b656;" vertex="1" parent="1">
                    <mxGeometry x="800" y="440" width="320" height="80" as="geometry"/>
                </mxCell>
                <mxCell id="17" value="" style="endArrow=none;html=1;strokeWidth=2;strokeColor=#000000;" edge="1" parent="1">
                    <mxGeometry width="50" height="50" relative="1" as="geometry">
                        <mxPoint x="720" y="440" as="sourcePoint"/>
                        <mxPoint x="1000" y="280" as="targetPoint"/>
                    </mxGeometry>
                </mxCell>
                <mxCell id="18" value="" style="endArrow=none;html=1;strokeWidth=2;exitX=0.5;exitY=0;exitDx=0;exitDy=0;strokeColor=#000000;" edge="1" parent="1" source="16">
                    <mxGeometry width="50" height="50" relative="1" as="geometry">
                        <mxPoint x="800" y="440" as="sourcePoint"/>
                        <mxPoint x="1080" y="280" as="targetPoint"/>
                    </mxGeometry>
                </mxCell>
                <mxCell id="19" value="" style="endArrow=none;html=1;strokeWidth=2;strokeColor=#000000;" edge="1" parent="1">
                    <mxGeometry width="50" height="50" relative="1" as="geometry">
                        <mxPoint x="1280" y="440" as="sourcePoint"/>
                        <mxPoint x="1160" y="280" as="targetPoint"/>
                    </mxGeometry>
                </mxCell>
                <mxCell id="20" value="" style="endArrow=none;html=1;strokeWidth=2;strokeColor=#000000;" edge="1" parent="1">
                    <mxGeometry width="50" height="50" relative="1" as="geometry">
                        <mxPoint x="1510" y="440" as="sourcePoint"/>
                        <mxPoint x="1240" y="280" as="targetPoint"/>
                    </mxGeometry>
                </mxCell>
                <mxCell id="21" value="" style="endArrow=none;html=1;strokeWidth=2;strokeColor=#000000;" edge="1" parent="1">
                    <mxGeometry width="50" height="50" relative="1" as="geometry">
                        <mxPoint x="720" y="640" as="sourcePoint"/>
                        <mxPoint x="840" y="520" as="targetPoint"/>
                    </mxGeometry>
                </mxCell>
                <mxCell id="22" value="" style="endArrow=none;html=1;strokeWidth=2;strokeColor=#000000;" edge="1" parent="1">
                    <mxGeometry width="50" height="50" relative="1" as="geometry">
                        <mxPoint x="840" y="640" as="sourcePoint"/>
                        <mxPoint x="920" y="520" as="targetPoint"/>
                    </mxGeometry>
                </mxCell>
                <mxCell id="23" value="" style="endArrow=none;html=1;strokeWidth=2;strokeColor=#000000;" edge="1" parent="1">
                    <mxGeometry width="50" height="50" relative="1" as="geometry">
                        <mxPoint x="1080" y="640" as="sourcePoint"/>
                        <mxPoint x="1000" y="520" as="targetPoint"/>
                    </mxGeometry>
                </mxCell>
                <mxCell id="24" value="" style="endArrow=none;html=1;strokeWidth=2;strokeColor=#000000;" edge="1" parent="1">
                    <mxGeometry width="50" height="50" relative="1" as="geometry">
                        <mxPoint x="1190" y="640" as="sourcePoint"/>
                        <mxPoint x="1080" y="520" as="targetPoint"/>
                    </mxGeometry>
                </mxCell>
                <mxCell id="25" value="&lt;p style=&quot;margin: 0in ; margin-left: 1.125in&quot;&gt;&lt;img src=&quot;data:image/jpeg;base64,/9j/4AAQSkZJRgABAQAAAQABAAD/2wBDAAMCAgICAgMCAgIDAwMDBAYEBAQEBAgGBgUGCQgKCgkICQkKDA8MCgsOCwkJDRENDg8QEBEQCgwSExIQEw8QEBD/2wBDAQMDAwQDBAgEBAgQCwkLEBAQEBAQEBAQEBAQEBAQEBAQEBAQEBAQEBAQEBAQEBAQEBAQEBAQEBAQEBAQEBAQEBD/wAARCADyAUIDASIAAhEBAxEB/8QAHAABAQACAwEBAAAAAAAAAAAAAAgHCQQFBgoD/8QATRAAAAQEAgUGCwQHBwUAAwAAAAECAwQFBgcIEQkSGSG0EzE4VHaWFBUWFzdBVleV0dIiUXezGDI2YWhxpiM1QnSB1OQpMzRy8CVD8f/EABQBAQAAAAAAAAAAAAAAAAAAAAD/xAAUEQEAAAAAAAAAAAAAAAAAAAAA/9oADAMBAAIRAxEAPwD3+E3Cbby/1vJ5XVdVVcBqZNVhPZYlMsquLhWCYYi1k0RNEo0pySZJyTkWSS3c5nmrZv2J9sbq994z5ho3/QTUH4gVJxihVQCVdm/Yn2xur33jPmGzfsT7Y3V77xnzFVAAlXZv2J9sbq994z5hs37E+2N1e+8Z8xVQAJV2b9ifbG6vfeM+YbN+xPtjdXvvGfMVUACVdm/Yn2xur33jPmGzfsT7Y3V77xnzFVAA1nYE8Htr722NcrSrair2FmCKimsvMpXVcZDNLbZf1WzNBKMtYk5Jz9ZJLPfmZ0Ps37E+2N1e+8Z8x1Wiz6MD/bCecQK/ASrs37E+2N1e+8Z8w2b9ifbG6vfeM+YqoAEq7N+xPtjdXvvGfMNm/Yn2xur33jPmKqABKuzfsT7Y3V77xnzDZv2J9sbq994z5iqgASrs37E+2N1e+8Z8w2b9ifbG6vfeM+YqoAGs7Ang9tfe2xrlaVbUVewswRUU1l5lK6rjIZpbbL+q2ZoJRlrEnJOfrJJZ78zOh9m/Yn2xur33jPmOq0WfRgf7YTziBX4CVdm/Yn2xur33jPmGzfsT7Y3V77xnzFVAAlXZv2J9sbq994z5hs37E+2N1e+8Z8xVQAJV2b9ifbG6vfeM+YbN+xPtjdXvvGfMVUACVdm/Yn2xur33jPmGzfsT7Y3V77xnzFVAA1nYE8Htr722NcrSrair2FmCKimsvMpXVcZDNLbZf1WzNBKMtYk5Jz9ZJLPfmZ0Ps37E+2N1e+8Z8x1Wiz6MD/bCecQK/ASrs37E+2N1e+8Z8w2b9ifbG6vfeM+YqoAEq7N+xPtjdXvvGfMNm/Yn2xur33jPmKqABKuzfsT7Y3V77xnzDZv2J9sbq994z5iqgASrs37E+2N1e+8Z8w2b9ifbG6vfeM+YqoAHzQ3DuJcWR1/U0klVxKrYgpfOI2FhmvHkUrUabfWlCc1OGZ5ERFmZmf3gPP3Z9KlZdoJjxLgAN6mjf9BNQfiBUnGKFVCVdG/6Cag/ECpOMUKqAAAAABPONLGBJcHdv5VV8ZSnlPMZ1MSgIKVFMPAjcSSDU44bvJO5EkiLdq7zURZkMX4MdJZJsWtyo+2cba3yMj2ZauYwKzn3jAozUUknG8vB2tUySolc6syI9xZALWAAAAAAEgaLPowP9sJ5xAr8SBos+jA/2wnnECvwAAHir1XH8z9pKvun4m8beSkmipt4B4R4P4TyLZr5PlNVepnllraqsvuMB7UBqr2538Lv9bf8AdtTWnFpWLmTbVX4d5rK4A1ES35dUbcc6lPrMm3Idkjy3btcs/3ANnwDyFp7rUPe2gZVcu3U4TMpHOGjcYd1TQtCiPJbbiD3oWlRGRpPmMvWW8evAAAAEgaLPowP9sJ5xAr8SBos+jA/2wnnECvwAAAAAR1iX0oVgsPNQxdDy+FmNcVRAqNuLg5StCIaEcLnbeiV5kS/vShKzLmVke4YXoTTc24m03bg7iWRnlNwDjhI8Mls3bmhtpP/ABLbU0weRevVNR/cR8wDZaA8/QVfUfdCkZbXdBT6FnMimzJPwkZDqzStPMZGR70qI8yNJkRkZGRkRj0AAAAAkDRZ9GB/thPOIFfiQNFn0YH+2E84gV+AAA4s0jfFksjJjyXKeCMOP6mtlraqTPLP1Z5AOUA1V7c7+F3+tv8AgBtzv4Xf62/4ADaoAwrhDxIfpVWahrt+Rnkv4TMIqB8X+MfDdXkVEWtyvJNZ5582ru+8xmoAAAAfMDdn0qVl2gmPEuAF2fSpWXaCY8S4ADepo3/QTUH4gVJxihVQlXRv+gmoPxAqTjFCqgAAHlbqV/KrV22qa407cJEFTkriJi7mf63JoMyT/MzyIv3mA1YY35pE4tNIXROHKTOqiJNS8TDyyMJGakEtZlERyzLm+y0lKM/UaTL9w8viklf6FGkcp26sgg1QVNzSIg50lts9RrwZwvB41oiL1ERLVke77Rf6YJw0YxU2Iv8AVFiFqy3S64n09RGG2hU68BKGeiXdd1zWNh3W3ZoIsiyIz/kPRY38dcnxlyymGl2WKkZrTT76m5h4/KPN6HdSWsyaPBmtX7SUKz1j5jLLfmQb7oGNhZlBQ8xgnkuw8U0h5lxJ5ktCiI0mX7jIyH7iV9Gnefzx4UaYXGxXLTekyVTsw1l6yzNgi5FZ/wDsybZ/zzFUAAAACQNFn0YH+2E84gV+JA0WfRgf7YTziBX4AMLY1OiRd/sdNOHUM0jC2NTokXf7HTTh1ANb+iyxcYesONv64kl57g+T0bOJxDxUE14pjovlWksaqlZwzLhJyPdkoyMZUx5Y7cIN8MPs4ttb6bO11VU3cYak7bcgjGFQURyiTJ4lxLLZkeRGkiRmatbLLIzGK9FlhHw9Yjrf1xO7z2+8oY2TziHhYJ3xtHQnJNKY1lJyhnmyVme/NRGYorE9ovsJ8rshV9T24pCLpCfSCUxE0hIxqcxsU2tTLZr5NxuJdcSaVEky+zkZZkZGAyPowbL17ZXDFCSu4sDES2Zz2ZPzluWxBGl2DYcShKErSe9C1EjWNPOWtke/MVwNbmhrvzXdfUlWVpqwm8ZNoOjyg4qUxEU4pxcOw/yiDhiUe/USbWaSM92sZFu3FsjAAAAEgaLPowP9sJ5xAr8SBos+jA/2wnnECvwAYNxtXcmNkMMFd3AksR4PNYeAKCl72X/aiYhaWW1/zSbmZfvIhnIS7pL6JmNdYM68gZUwt6IljcLN9RCTUo24Z9DjmRFz/YJR/wCgCUtDvh1o2ppHUeImuJLDTudomypZJnI5BPlCmhCVvPkSiP8AtVKcItfeZER5GWsYvfEjhtt5iatvMaBrSWwrcS+yopbOPBEuxMrf/wALzRmZHuPnTrESizIxI2hZrmTTOxNVUC3EtJmsjqBUa6xrlrqh4hpGo5lz6us2tOf3kLtuRcGmbU0JPLjVlGHDSan4JyOi1pIjWaEFnqoIzIjWo8kpLMszMiAYwwk4UpBhIoaPoam66qGooWYxhR7hTQ2iaYe1CSrkEISRtpVqkZkalbyz+/POYxrY/EZZzEbT71R2hrOHncPCGlEYzyTjMRCLURmSXWnEpUnPI8jyyPI8jMZKAAAAEgaLPowP9sJ5xAr8SBos+jA/2wnnECvwAdXVP7MTf/IRH5ah2g6uqf2Ym/8AkIj8tQDSVoscR9mMOFe1zOrz1l5PQU4lENCwTvi6Li+VdS8alJyhmnDTkW/NREQ2P7UfAn78/wCmZx/tBrg0WOHCzGI+va5kt56N8oYKTyiGioJrxjFwnJOqeNKlZwzrZqzLdkozIbH9lxgT9xn9TTj/AHYCiqAr2k7oUbKbgULNfGcgnkOUVARfIOs8s0ZmRK1HUpWneR7lJIx6AefoCgqTtfRspt/Qsq8WSCRw5QsBCcu69yLRGZknXdUpat5nvUozHoAAAAB8wN2fSpWXaCY8S4AXZ9KlZdoJjxLgAN6mjf8AQTUH4gVJxihVQlXRv+gmoPxAqTjFCqgASjpIbeX9u/YZu1thaKXP4mfTJo5ypMzhIPkINr+0JOcQ62StdwkFknPcR5/vq4AE8YC7ATXDjhtp6hKolyYKpYlb0znjJOtum3FvKz5M1tmpCtRBITmkzL7O4z5xlO9FuJdd609WWzmiEqYqOUxEBmf+Fa0HqKz9RpXqnn+4e0ABrm0X+HTFdhlrarqcu3bdcqo+oYRD7cYidS+JbbjmVZJMm2X1O/bbWos9XdqFnkNjIAAAAAJA0WfRgf7YTziBX4kDRZ9GB/thPOIFfgAxhifo2pLiYdrj0LR0t8YTyfU1Hy+XwvLNtctEOMqShGu4pKE5mZFmpREXrMZPABpgshhw0uGHGVTOSWYo3yegpxEIio1rxjTMXyrqU6qVZxLrhpyLdkkyIewrKzemVvvTsXbi6Eyahadmeq3GIej5BCNOozzNLipeRuqRu3pyMj+4xtvABNeBbB5BYQrZRUhj5vDziqZ++mMncfDoNLJKSnJDDOtko20EZ/aMiNRqM8i5ipQAAAAAEgaLPowP9sJ5xAr8SBos+jA/2wnnECvwAfjGwcJMYN+Xx8M3EQ0U2pl5lxJKQ4hRZKSoj5yMjMjIfsADV7c/Rn3/ALKXSibv4FrhtytL61uIkr0YUNEQxLPM2EKcI2IhjPmQ9lkRER62WY8fVeFTSuYqmIWj8QVXQUop1mIS64iPmEtbh1GnmWbEqSrllFmeqThc5c5c425AAwzhSwwUXhRtaxbylH1x8W+74ZN5q60SHY+KMiI1mks9VBERJSnM8iLnM8zPMwAAAAAJA0WfRgf7YTziBX4kDRZ9GB/thPOIFfgA4E/hn42RTGDhka7z8I802nMi1lKQZEWZ7i3mOeADSXZDCRpU8OE0mc6sxb/yejZxDohY13xtTkXyrSVayU5RLzhJyPfmkiMZg/66/wD95HDaoADAODD9K/zZR/6X/wC1/jVzwX+7f/C1Ean93/2X62vz/a+/dkM/AAAAAA+YG7PpUrLtBMeJcALs+lSsu0Ex4lwAG9TRv+gmoPxAqTjFCqhKujf9BNQfiBUnGKFVAAAAAAAAAAAAAACQNFn0YH+2E84gV+JA0WfRgf7YTziBX4AAAAAAAAAAAAAAkDRZ9GB/thPOIFfiQNFn0YH+2E84gV+AAAAAAAAAAAAAAJA0WfRgf7YTziBX4kDRZ9GB/thPOIFfgAAAAAAAAAAAAAD5gbs+lSsu0Ex4lwAuz6VKy7QTHiXAAbTcHuBOxt7bXzara0eq1EwhaunkrI5fP34ZtbTMYskGbafskrI95pIiPLPLPMzzlss8MHW7gd6ogdro3/QTUH4gVJxihVQCQNlnhg63cDvVEBss8MHW7gd6ogV+ACQNlnhg63cDvVEBss8MHW7gd6ogV+ACQNlnhg63cDvVEBss8MHW7gd6ogV+ACQNlnhg63cDvVEBss8MHW7gd6ogV+ADV1gWwK2JvjY1daVj5VQ8wbqGay/KWT+IhmlNMvmSDNBGZa2qZEZlz5FnvzM6G2WeGDrdwO9UQGiz6MD/AGwnnECvwEgbLPDB1u4HeqIDZZ4YOt3A71RAr8AEgbLPDB1u4HeqIDZZ4YOt3A71RAr8AEgbLPDB1u4HeqIDZZ4YOt3A71RAr8AEgbLPDB1u4HeqIDZZ4YOt3A71RAr8AGrrAtgVsTfGxq60rHyqh5g3UM1l+Usn8RDNKaZfMkGaCMy1tUyIzLnyLPfmZ0Nss8MHW7gd6ogNFn0YH+2E84gV+AkDZZ4YOt3A71RAbLPDB1u4HeqIFfgAkDZZ4YOt3A71RAbLPDB1u4HeqIFfgAkDZZ4YOt3A71RAbLPDB1u4HeqIFfgAkDZZ4YOt3A71RAbLPDB1u4HeqIFfgA1V4CsBWH6/9gGa+r2DqJM28dzKAUqXzp6HbW209kgzRvLWyPLMss8i9eZnRWycwl9XrXvI98g0TnRLa7UTj84hZQCNdk5hL6vWveR75BsnMJfV617yPfIWUACNdk5hL6vWveR75BsnMJfV617yPfIWUACNdk5hL6vWveR75BsnMJfV617yPfIWUACNdk5hL6vWveR75BsnMJfV617yPfIWUAD5eLiy2Dk1wanlEuaNuEgZzGwzCDWpZpbQ+tKSNSjNSsiIt5mZn6zAcm7PpUrLtBMeJcABvU0b/oJqD8QKk4xQqoSro3/QTUH4gVJxihVQAABzAACEsQ2lysnZuq5jQ1EUnM7gTaUurh4x+Gi24OXoeTmSm0xBpcUs0qLIzS2afuM948xabTR2eq+ewklufbSc0M3Fuk0UwZmCJnCMGZ5Ep4ybacSnmzNKFZfdlvAbFAHHgI+BmsDDzOWRbMVCRbSH2H2VktDraiI0qSotxkZGRkZDkAAAACQNFn0YH+2E84gV+JA0WfRgf7YTziBX4AAAAANZdxNNF5A3Aqahf0bPDvJycxsp8K8seS5fwd9bXKangKtXW1M9XWPLPLM+cef2538Lv9bf8ABtUAYrwxXy/SPsrILweS/k948J4/F3hvhfI8m6pv8A7vJt62ern+oXOMqAAAACQNFn0YH+2E84gV+JA0WfRgf7YTziBX4AAAAAI6xL6UKwWHmoYuh5fCzGuKogVG3FwcpWhENCOFztvRK8yJf3pQlZlzKyPcML0JpubcTabtwdxLIzym4BxwkeGS2btzQ20n/iW2ppg8i9eqaj+4j5gGy0B5+gq+o+6FIy2u6Cn0LOZFNmSfhIyHVmlaeYyMj3pUR5kaTIjIyMjIjHoAAAABGuic6JbXaicfnELKEa6JzoltdqJx+cQsoAAA5gABCWIbS5WTs3VcxoaiKTmdwJtKXVw8Y/DRbcHL0PJzJTaYg0uKWaVFkZpbNP3Ge8eYtNpo7PVfPYSS3PtpOaGbi3SaKYMzBEzhGDM8iU8ZNtOJTzZmlCsvuy3gNigDjwEfAzWBh5nLItmKhItpD7D7KyWh1tREaVJUW4yMjIyMhyAAAAB8wN2fSpWXaCY8S4AXZ9KlZdoJjxLgAN6mjf9BNQfiBUnGKFVCVdG/6Cag/ECpOMUKqAB09ZQMymlITyWSZ3kphFy2JYhF62rqvLaUlB5+rJRlvHcDz9fV3TFsaMnFwK0j3IKRyGFXGx8QiHcfU0yn9ZWo2lS1ZfuIwGkDAhiAt9gzvfVzOIa38yXMniTLPD0wSH4ySxLTi+V+w4ZL1V5lrKQet9hO5RGLkv1LsGekup+SSCgr/0vIqzl8YS4KNiJbqzNxo0mTkMUNELh3XUmeqf2TMiNJGRHmPVyencCGkvbqCpYSh3JjM6eiG4CInHJLlcxWSm9ZtwlNrJbreWslPLJMiNJlqiTsZ2ito6w9rJ3ei09zJuqEp0m4iJlU9JpbikKcSnNmIaSjJRGoskqQeeX62YDZ3h4tPMrG2bpi000rFVUOU1CHBNzNUF4KbrRKM208lyjmrqpMkl9s9yS5uYZGEg6Le8lZ3iwvQcRXcxiJlMqbmT8lRHxCjU7EQ7aUKaNaj3qUlK9XWPeeqWe8V8AAAAJA0WfRgf7YTziBX4kDRZ9GB/thPOIFfgAAADRxhsvPbWw2kWuDcC69SeI5A1OaohVxfgcRE5OuRbhITqMIWveZHv1ci9Y2O7UfAn78/6ZnH+0GuLDZZi2t+dItcG3916b8eSB2c1RFLhPDIiGzdbi3DQrXYWhe4zPdrZH6xsd2XGBP3Gf1NOP92Ap+UzSBnkrg51K3+XgphDtxUM7qqTrtOJJSFZKIjLMjI8jIjHLHElMrgZHK4OSytjkIKXw7cLDNaylajTaSShOajMzyIiLMzMxywAAABIGiz6MD/bCecQK/EgaLPowP8AbCecQK/ABg3G1dyY2QwwV3cCSxHg81h4AoKXvZf9qJiFpZbX/NJuZl+8iGchLukvomY11gzryBlTC3oiWNws31EJNSjbhn0OOZEXP9glH/oAlLQ74daNqaR1HiJriSw07naJsqWSZyOQT5QpoQlbz5Eoj/tVKcItfeZER5GWsYvfEjhtt5iatvMaBrSWwrcS+yopbOPBEuxMrf8A8LzRmZHuPnTrESizIxI2hZrmTTOxNVUC3EtJmsjqBUa6xrlrqh4hpGo5lz6us2tOf3kLtuRcGmbU0JPLjVlGHDSan4JyOi1pIjWaEFnqoIzIjWo8kpLMszMiAYwwk4UpBhIoaPoam66qGooWYxhR7hTQ2iaYe1CSrkEISRtpVqkZkalbyz+/POYxrY/EZZzEbT71R2hrOHncPCGlEYzyTjMRCLURmSXWnEpUnPI8jyyPI8jMZKAAAAEa6JzoltdqJx+cQsoRronOiW12onH5xCygAdPWUDMppSE8lkmd5KYRctiWIRetq6ry2lJQefqyUZbx3A8/X1d0xbGjJxcCtI9yCkchhVxsfEIh3H1NMp/WVqNpUtWX7iMBpAwIYgLfYM731cziGt/MlzJ4kyzw9MEh+MksS04vlfsOGS9VeZaykHrfYTuURi5L9S7BnpLqfkkgoK/9LyKs5fGEuCjYiW6szcaNJk5DFDRC4d11Jnqn9kzIjSRkR5j1cnp3AhpL26gqWEodyYzOnohuAiJxyS5XMVkpvWbcJTayW63lrJTyyTIjSZaok7GdoraOsPayd3otPcybqhKdJuIiZVPSaW4pCnEpzZiGkoyURqLJKkHnl+tmA2d4eLTzKxtm6YtNNKxVVDlNQhwTczVBeCm60SjNtPJco5q6qTJJfbPckubmGRhIOi3vJWd4sL0HEV3MYiZTKm5k/JUR8Qo1OxEO2lCmjWo96lJSvV1j3nqlnvFfAAAAD5gbs+lSsu0Ex4lwAuz6VKy7QTHiXAAb1NG/6Cag/ECpOMUKqEq6N/0E1B+IFScYoVUADr6hkMpqqRTCmp/BNxktmsK7BxcO4X2XWXEmlaT/AJkZjsAAam53o4sY+GS5ExrzBdcViKgIrWRDw5xzUNGkwZ6xMPtRReDPpTuIlKVvPfqpHGqfClpV8VcPCUfiHraAktNtRKHnW46OlyGT1T/XNiVJMnlJ3mknMiz9aecbbQAYxw4WDpPDVaST2npF52JYlxKdio15JJcjYpZ5uvKItxZnzJ9RERb8sxk4AAAAAEgaLPowP9sJ5xAr8SBos+jA/wBsJ5xAr8AAAAa0sJWD7EXbHHtVt6a4t34toyZxlROwsy8bwL3KIiohS2D5Jp5TpayTI96Cy9eQ2WgAAAAAAAAJA0WfRgf7YTziBX4kDRZ9GB/thPOIFfgA/GNg4SYwb8vj4ZuIhoptTLzLiSUhxCiyUlRHzkZGZGQ/YAGr25+jPv8A2UulE3fwLXDblaX1rcRJXowoaIhiWeZsIU4RsRDGfMh7LIiIj1ssx4+q8KmlcxVMQtH4gqugpRTrMQl1xEfMJa3DqNPMs2JUlXLKLM9UnC5y5y5xtyABhnClhgovCja1i3lKPrj4t93wybzV1okOx8UZERrNJZ6qCIiSlOZ5EXOZ5meZgAAAAARronOiW12onH5xCyhGuic6JbXaicfnELKAB19QyGU1VIphTU/gm4yWzWFdg4uHcL7LrLiTStJ/zIzHYAA1NzvRxYx8MlyJjXmC64rEVARWsiHhzjmoaNJgz1iYfaii8GfSncRKUree/VSONU+FLSr4q4eEo/EPW0BJabaiUPOtx0dLkMnqn+ubEqSZPKTvNJOZFn608422gAxjhwsHSeGq0kntPSLzsSxLiU7FRrySS5GxSzzdeURbizPmT6iIi35ZjJwAAAAAPmBuz6VKy7QTHiXAC7PpUrLtBMeJcABvU0b/AKCag/ECpOMUKqEq6N/0E1B+IFScYoVUAAAAAAAAAAAAAAJA0WfRgf7YTziBX4kDRZ9GB/thPOIFfgAAAAAAAAAAAAACQNFn0YH+2E84gV+JA0WfRgf7YTziBX4AAAAAAAAAAAAAAjXROdEtrtROPziFlCNdE50S2u1E4/OIWUAAAAAAAAAAAAAAPmBuz6VKy7QTHiXAC7PpUrLtBMeJcABtNwe4E7G3ttfNqtrR6rUTCFq6eSsjl8/fhm1tMxiyQZtp+ySsj3mkiI8s8s8zPOWyzwwdbuB3qiB2ujf9BNQfiBUnGKFVAJA2WeGDrdwO9UQGyzwwdbuB3qiBX4AJA2WeGDrdwO9UQGyzwwdbuB3qiBX4AJA2WeGDrdwO9UQGyzwwdbuB3qiBX4AJA2WeGDrdwO9UQGyzwwdbuB3qiBX4ANXWBbArYm+NjV1pWPlVDzBuoZrL8pZP4iGaU0y+ZIM0EZlrapkRmXPkWe/MzobZZ4YOt3A71RAaLPowP9sJ5xAr8BIGyzwwdbuB3qiA2WeGDrdwO9UQK/ABIGyzwwdbuB3qiA2WeGDrdwO9UQK/ABIGyzwwdbuB3qiA2WeGDrdwO9UQK/ABIGyzwwdbuB3qiA2WeGDrdwO9UQK/ABq6wLYFbE3xsautKx8qoeYN1DNZflLJ/EQzSmmXzJBmgjMtbVMiMy58iz35mdDbLPDB1u4HeqIDRZ9GB/thPOIFfgJA2WeGDrdwO9UQGyzwwdbuB3qiBX4AJA2WeGDrdwO9UQGyzwwdbuB3qiBX4AJA2WeGDrdwO9UQGyzwwdbuB3qiBX4AJA2WeGDrdwO9UQGyzwwdbuB3qiBX4ANWWATA3Y+/GHqFret3KrbmTc5mUv8A/wAbP34ZpTbTx6h8mRmklZKyMyyzyzyzzM6O2WeGDrdwO9UQOJonOiW12onH5xCygEgbLPDB1u4HeqIDZZ4YOt3A71RAr8AEgbLPDB1u4HeqIDZZ4YOt3A71RAr8AEgbLPDB1u4HeqIDZZ4YOt3A71RAr8AEgbLPDB1u4HeqIDZZ4YOt3A71RAr8AHy83IgIWVXEqmVwSFph4OdRzDKVuKcUSEPrSkjUozUo8iLeZmZ+szAci7PpUrLtBMeJcABvU0b/AKCag/ECpOMUKqEq6N/0E1B+IFScYoVUAAAAACecaWMCS4O7fyqr4ylPKeYzqYlAQUqKYeBG4kkGpxw3eSdyJJEW7V3moizIYvwY6SyTYtblR9s421vkZHsy1cxgVnPvGBRmopJON5eDtapklRK51ZkR7iyAWsAAAAAAJA0WfRgf7YTziBX4kDRZ9GB/thPOIFfgAAPFXquP5n7SVfdPxN428lJNFTbwDwjwfwnkWzXyfKaq9TPLLW1VZfcYD2oDVXtzv4Xf62/4A9hbnTZWtn84h5fcqz87pOEfcJtUdAzNE1bYIz/XcTyTK9UvXqko/uIwGyQB1VK1VTlcU5LqupGcws2k02h0RUFGwrhLafaUWZKSZf8A9I9x7x2oAAAAkDRZ9GB/thPOIFfiQNFn0YH+2E84gV+AAA4s0jfFksjJjyXKeCMOP6mtlraqTPLP1Z5AOUA1V7c7+F3+tv8AgBtzv4Xf62/4ADaoAwrhDxIfpVWahrt+Rnkv4TMIqB8X+MfDdXkVEWtyvJNZ5582ru+8xmoAAAARronOiW12onH5xCyhGuic6JbXaicfnELKAAAcWaRviyWRkx5LlPBGHH9TWy1tVJnln6s8gHKAaq9ud/C7/W3/AAA2538Lv9bf8ABtUAYVwh4kP0qrNQ12/IzyX8JmEVA+L/GPhuryKiLW5Xkms88+bV3feYzUAAAAPmBuz6VKy7QTHiXAC7PpUrLtBMeJcABvU0b/AKCag/ECpOMUKqEq6N/0E1B+IFScYoVUAAA8rdSv5Vau21TXGnbhIgqclcRMXcz/AFuTQZkn+ZnkRfvMBqwxvzSJxaaQuicOUmdVESal4mHlkYSM1IJazKIjlmXN9lpKUZ+o0mX7h5fFJK/0KNI5Tt1ZBBqgqbmkRBzpLbZ6jXgzheDxrREXqIiWrI932i/0wThoxipsRf6osQtWW6XXE+nqIw20KnXgJQz0S7ruuaxsO627NBFkWRGf8h6LG/jrk+MuWUw0uyxUjNaaffU3MPH5R5vQ7qS1mTR4M1q/aShWesfMZZb8yDfdAxsLMoKHmME8l2HimkPMuJPMloURGky/cZGQ/cSvo07z+ePCjTC42K5ab0mSqdmGsvWWZsEXIrP/ANmTbP8AnmKoAAAAEgaLPowP9sJ5xAr8SBos+jA/2wnnECvwAYWxqdEi7/Y6acOoZpGFsanRIu/2OmnDqAR/oQ/RVcrtDCcMKN0gWHqhr0YdKxmUyp2AVUtNyqIm0nmnJJTEMOsJNw0coRa3JrJKkqTvLfnlmRCctCH6KrldoYThhZmLqq5VRWGS5tQTh0kQ7VNRzJFrERrcdaNttBZ+tS1pIv5gI00Kl1JrP7c1vaeZxrsQxS0dDzGXpXmZMMxRLJaCP7uUaUrL71K+8bKBqu0H9IR7TN0q9caUUFEKl0pZWZGRG43yrqyI+Y8icb/lmX3jaiAAAAJA0WfRgf7YTziBX4kDRZ9GB/thPOIFfgA6uqf2Ym/+QiPy1DtB1dU/sxN/8hEflqAaStFjiPsxhwr2uZ1eesvJ6CnEohoWCd8XRcXyrqXjUpOUM04aci35qIiGx/aj4E/fn/TM4/2g1waLHDhZjEfXtcyW89G+UMFJ5RDRUE14xi4TknVPGlSs4Z1s1ZluyUZkNj+y4wJ+4z+ppx/uwFFUBXtJ3Qo2U3AoWa+M5BPIcoqAi+QdZ5ZozMiVqOpStO8j3KSRj0A8/QFBUna+jZTb+hZV4skEjhyhYCE5d17kWiMzJOu6pS1bzPepRmPQAAAACNdE50S2u1E4/OIWUI10TnRLa7UTj84hZQAOrqn9mJv/AJCI/LUO0HV1T+zE3/yER+WoBpK0WOI+zGHCva5nV56y8noKcSiGhYJ3xdFxfKupeNSk5QzThpyLfmoiIbH9qPgT9+f9Mzj/AGg1waLHDhZjEfXtcyW89G+UMFJ5RDRUE14xi4TknVPGlSs4Z1s1ZluyUZkNj+y4wJ+4z+ppx/uwFFUBXtJ3Qo2U3AoWa+M5BPIcoqAi+QdZ5ZozMiVqOpStO8j3KSRj0A8/QFBUna+jZTb+hZV4skEjhyhYCE5d17kWiMzJOu6pS1bzPepRmPQAAAAD5gbs+lSsu0Ex4lwAuz6VKy7QTHiXAAb1NG/6Cag/ECpOMUKqEq6N/wBBNQfiBUnGKFVAAlHSQ28v7d+wzdrbC0UufxM+mTRzlSZnCQfIQbX9oSc4h1sla7hILJOe4jz/AH1cACeMBdgJrhxw209QlUS5MFUsSt6ZzxknW3Tbi3lZ8ma2zUhWogkJzSZl9ncZ84ynei3Euu9aerLZzRCVMVHKYiAzP/CtaD1FZ+o0r1Tz/cPaAA1zaL/Dpiuwy1tV1OXbtuuVUfUMIh9uMROpfEttxzKskmTbL6nfttrUWeru1CzyGxkAAAAAEgaLPowP9sJ5xAr8SBos+jA/2wnnECvwAYwxP0bUlxMO1x6Fo6W+MJ5Pqaj5fL4Xlm2uWiHGVJQjXcUlCczMizUoiL1mMngA0wWQw4aXDDjKpnJLMUb5PQU4iERUa14xpmL5V1KdVKs4l1w05FuySZEPaVBhF0pOLDwKmMSVfQMiptiIS863GRkv5MjL/wDYUNKy1HlkRnqk4af/AGSNtYAMa4eLC0XhttXKbV0QlxyEl6TciYx4iJ6NiV73H3Mt2aj9RbiIiIuYZKAAAAABIGiz6MD/AGwnnECvxIGiz6MD/bCecQK/ABwJ/DPxsimMHDI13n4R5ptOZFrKUgyIsz3FvMc8AGkuyGEjSp4cJpM51Zi3/k9GziHRCxrvjanIvlWkq1kpyiXnCTke/NJEYzB/11//ALyOG1QAGAcGH6V/myj/ANL/APa/xq54L/dv/haiNT+7/wCy/W1+f7X37shn4AAAAAEa6JzoltdqJx+cQsoRronOiW12onH5xCygAcCfwz8bIpjBwyNd5+EeabTmRaylIMiLM9xbzHPABpLshhI0qeHCaTOdWYt/5PRs4h0Qsa742pyL5VpKtZKcol5wk5HvzSRGMwf9df8A+8jhtUABgHBh+lf5so/9L/8Aa/xq54L/AHb/AOFqI1P7v/sv1tfn+19+7IZ+AAAAAB8wN2fSpWXaCY8S4AXZ9KlZdoJjxLgAN6mjf9BNQfiBUnGKFVCVdG/6Cag/ECpOMUKqAAAAAAAAAAAAAAEgaLPowP8AbCecQK/EgaLPowP9sJ5xAr8AAAAAAAAAAAAAASBos+jA/wBsJ5xAr8SBos+jA/2wnnECvwAAAAAAAAAAAAABGuic6JbXaicfnELKEa6JzoltdqJx+cQsoAAAAAAAAAAAAAAfMDdn0qVl2gmPEuAF2fSpWXaCY8S4AD0FxLh1/I7i1bKpJXFQS+CYqCZclDQszfaaRnFOKPVQlREWZmZnkXOZmPP+dm6nvLqv4zE/WAAHnZup7y6r+MxP1h52bqe8uq/jMT9YAAedm6nvLqv4zE/WHnZup7y6r+MxP1gAB52bqe8uq/jMT9Yedm6nvLqv4zE/WAAHnZup7y6r+MxP1h52bqe8uq/jMT9YAA48Bci4kqhUwUrr2o4OHSpa0ssTR9tBKUo1KMkpURZmpSlH95mZ+scjzs3U95dV/GYn6wAA87N1PeXVfxmJ+sPOzdT3l1X8ZifrAADzs3U95dV/GYn6w87N1PeXVfxmJ+sAAPOzdT3l1X8ZifrDzs3U95dV/GYn6wAA87N1PeXVfxmJ+sPOzdT3l1X8ZifrAAHHgLkXElUKmClde1HBw6VLWlliaPtoJSlGpRklKiLM1KUo/vMzP1jkedm6nvLqv4zE/WAAHnZup7y6r+MxP1h52bqe8uq/jMT9YAAedm6nvLqv4zE/WHnZup7y6r+MxP1gAB52bqe8uq/jMT9Yedm6nvLqv4zE/WAAHnZup7y6r+MxP1h52bqe8uq/jMT9YAA40tuLcGTQaJdKK7qGBhGzUaGIaaPtNpNSjUoySlREWajMz+8zMxyfOzdT3l1X8ZifrAADzs3U95dV/GYn6w87N1PeXVfxmJ+sAAPOzdT3l1X8ZifrDzs3U95dV/GYn6wAA87N1PeXVfxmJ+sPOzdT3l1X8ZifrAADzs3U95dV/GYn6w87N1PeXVfxmJ+sAAeai4uKj4p6Pj4l2JiYlxTzzzyzWtxajzUpSj3mZmZmZnvMzAAAf//Z&quot; width=&quot;322&quot; height=&quot;241&quot;&gt;&lt;/p&gt;" style="text;whiteSpace=wrap;html=1;" vertex="1" parent="1">
                    <mxGeometry x="170" y="153" width="460" height="260" as="geometry"/>
                </mxCell>
            </root>
        </mxGraphModel>
    </diagram>
</mxfile>